<svg width="1440" height="1377" fill="none" xmlns="http://www.w3.org/2000/svg">
<path opacity="0.2" d="M111.041 351.64C-26.3026 557.91 312.316 490.176 108.252 668.849C-222.846 884.577 -256.724 554.794 -590.71 173.856C-924.695 -207.083 -384.055 -35.0099 -24.2095 91.7163C-77.7349 123.082 244.971 150.496 111.041 351.64Z" fill="#A1A7E3"/>
<path opacity="0.2" d="M1376.93 940.47C1430.95 790.206 1289.22 819.247 1371.96 694.973C1507.63 550.785 1528.34 808.557 1676.82 1126.71C1825.3 1444.86 1593.58 1274.19 1439.11 1151.14C1461.11 1130.55 1324.26 1087 1376.93 940.47Z" fill="#A1A7E3"/>
<g opacity="0.6">
<mask id="mask0" mask-type="alpha" maskUnits="userSpaceOnUse" x="-112" y="927" width="397" height="450">
<ellipse cx="86.6378" cy="1152" rx="119.806" ry="190.428" transform="rotate(-29.2994 86.6378 1152)" fill="#4953BE"/>
</mask>
<g mask="url(#mask0)">
<rect width="248.064" height="3.70311" transform="matrix(0.798849 -0.601532 0.485994 0.873962 -2.89258 1224.17)" fill="white"/>
<rect width="248.064" height="3.70311" transform="matrix(0.798849 -0.601532 0.485994 0.873962 -8.98169 1213.22)" fill="white"/>
<rect width="248.064" height="3.70311" transform="matrix(0.798849 -0.601532 0.485994 0.873962 -15.0706 1202.27)" fill="white"/>
<rect width="248.064" height="3.70311" transform="matrix(0.798849 -0.601532 0.485994 0.873962 3.19653 1235.12)" fill="white"/>
<rect width="248.064" height="3.70311" transform="matrix(0.798849 -0.601532 0.485994 0.873962 9.2854 1246.07)" fill="white"/>
<rect width="248.064" height="3.70311" transform="matrix(0.798849 -0.601532 0.485994 0.873962 15.3745 1257.02)" fill="white"/>
<rect width="248.064" height="3.70311" transform="matrix(0.798849 -0.601532 0.485994 0.873962 21.4636 1267.97)" fill="white"/>
<rect width="248.064" height="3.70311" transform="matrix(0.798849 -0.601532 0.485994 0.873962 34.5955 1305.45)" fill="white"/>
<rect width="248.064" height="3.70311" transform="matrix(0.798849 -0.601532 0.485994 0.873962 28.5063 1294.5)" fill="white"/>
<rect width="248.064" height="3.70311" transform="matrix(0.798849 -0.601532 0.485994 0.873962 22.4172 1283.55)" fill="white"/>
<rect width="248.064" height="3.70311" transform="matrix(0.798849 -0.601532 0.485994 0.873962 40.6843 1316.4)" fill="white"/>
<rect width="248.064" height="3.70311" transform="matrix(0.798849 -0.601532 0.485994 0.873962 46.7732 1327.35)" fill="white"/>
<rect width="248.064" height="3.70311" transform="matrix(0.798849 -0.601532 0.485994 0.873962 52.8625 1338.3)" fill="white"/>
<rect width="248.064" height="3.70311" transform="matrix(0.798849 -0.601532 0.485994 0.873962 58.9514 1349.25)" fill="white"/>
<rect width="248.064" height="3.70311" transform="matrix(0.798849 -0.601532 0.485994 0.873962 114.992 1352.31)" fill="white"/>
<rect width="248.064" height="3.70311" transform="matrix(0.798849 -0.601532 0.485994 0.873962 108.903 1341.36)" fill="white"/>
<rect width="248.064" height="3.70311" transform="matrix(0.798849 -0.601532 0.485994 0.873962 102.814 1330.41)" fill="white"/>
<rect width="248.064" height="3.70311" transform="matrix(0.798849 -0.601532 0.485994 0.873962 121.081 1363.26)" fill="white"/>
<rect width="248.064" height="3.70311" transform="matrix(0.798849 -0.601532 0.485994 0.873962 127.17 1374.21)" fill="white"/>
<rect width="248.064" height="3.70311" transform="matrix(0.798849 -0.601532 0.485994 0.873962 133.259 1385.16)" fill="white"/>
<rect width="248.064" height="3.70311" transform="matrix(0.798849 -0.601532 0.485994 0.873962 139.348 1396.1)" fill="white"/>
<rect width="248.064" height="3.70311" transform="matrix(0.798849 -0.601532 0.485994 0.873962 152.48 1433.59)" fill="white"/>
<rect width="248.064" height="3.70311" transform="matrix(0.798849 -0.601532 0.485994 0.873962 146.391 1422.64)" fill="white"/>
<rect width="248.064" height="3.70311" transform="matrix(0.798849 -0.601532 0.485994 0.873962 140.302 1411.69)" fill="white"/>
<rect width="248.064" height="3.70311" transform="matrix(0.798849 -0.601532 0.485994 0.873962 158.569 1444.54)" fill="white"/>
<rect width="248.064" height="3.70311" transform="matrix(0.798849 -0.601532 0.485994 0.873962 164.658 1455.49)" fill="white"/>
<rect width="248.064" height="3.70311" transform="matrix(0.798849 -0.601532 0.485994 0.873962 170.747 1466.44)" fill="white"/>
<rect width="248.064" height="3.70311" transform="matrix(0.798849 -0.601532 0.485994 0.873962 176.836 1477.39)" fill="white"/>
<rect width="248.064" height="3.70311" transform="matrix(0.798849 -0.601532 0.485994 0.873962 -38.7705 1172.92)" fill="white"/>
<rect width="248.064" height="3.70311" transform="matrix(0.798849 -0.601532 0.485994 0.873962 -44.8596 1161.97)" fill="white"/>
<rect width="248.064" height="3.70311" transform="matrix(0.798849 -0.601532 0.485994 0.873962 -50.9485 1151.02)" fill="white"/>
<rect width="248.064" height="3.70311" transform="matrix(0.798849 -0.601532 0.485994 0.873962 -32.6814 1183.87)" fill="white"/>
<rect width="248.064" height="3.70311" transform="matrix(0.798849 -0.601532 0.485994 0.873962 -26.5925 1194.82)" fill="white"/>
<rect width="248.064" height="3.70311" transform="matrix(0.798849 -0.601532 0.485994 0.873962 -20.5034 1205.77)" fill="white"/>
<rect width="248.064" height="3.70311" transform="matrix(0.798849 -0.601532 0.485994 0.873962 -14.4146 1216.72)" fill="white"/>
<rect width="248.064" height="3.70311" transform="matrix(0.798849 -0.601532 0.485994 0.873962 -1.28247 1254.2)" fill="white"/>
<rect width="248.064" height="3.70311" transform="matrix(0.798849 -0.601532 0.485994 0.873962 -7.37158 1243.25)" fill="white"/>
<rect width="248.064" height="3.70311" transform="matrix(0.798849 -0.601532 0.485994 0.873962 -13.4607 1232.3)" fill="white"/>
<rect width="248.064" height="3.70311" transform="matrix(0.798849 -0.601532 0.485994 0.873962 4.8064 1265.15)" fill="white"/>
<rect width="248.064" height="3.70311" transform="matrix(0.798849 -0.601532 0.485994 0.873962 10.8953 1276.1)" fill="white"/>
<rect width="248.064" height="3.70311" transform="matrix(0.798849 -0.601532 0.485994 0.873962 16.9846 1287.05)" fill="white"/>
<rect width="248.064" height="3.70311" transform="matrix(0.798849 -0.601532 0.485994 0.873962 23.0735 1298)" fill="white"/>
<rect width="248.064" height="3.70311" transform="matrix(0.798849 -0.601532 0.485994 0.873962 -139.997 1030.69)" fill="white"/>
<rect width="248.064" height="3.70311" transform="matrix(0.798849 -0.601532 0.485994 0.873962 -146.086 1019.74)" fill="white"/>
<rect width="248.064" height="3.70311" transform="matrix(0.798849 -0.601532 0.485994 0.873962 -152.175 1008.79)" fill="white"/>
<rect width="248.064" height="3.70311" transform="matrix(0.798849 -0.601532 0.485994 0.873962 -133.908 1041.64)" fill="white"/>
<rect width="248.064" height="3.70311" transform="matrix(0.798849 -0.601532 0.485994 0.873962 -127.819 1052.59)" fill="white"/>
<rect width="248.064" height="3.70311" transform="matrix(0.798849 -0.601532 0.485994 0.873962 -121.73 1063.54)" fill="white"/>
<rect width="248.064" height="3.70311" transform="matrix(0.798849 -0.601532 0.485994 0.873962 -115.641 1074.49)" fill="white"/>
<rect width="248.064" height="3.70311" transform="matrix(0.798849 -0.601532 0.485994 0.873962 -102.509 1111.97)" fill="white"/>
<rect width="248.064" height="3.70311" transform="matrix(0.798849 -0.601532 0.485994 0.873962 -108.598 1101.02)" fill="white"/>
<rect width="248.064" height="3.70311" transform="matrix(0.798849 -0.601532 0.485994 0.873962 -114.688 1090.07)" fill="white"/>
<rect width="248.064" height="3.70311" transform="matrix(0.798849 -0.601532 0.485994 0.873962 -96.4204 1122.92)" fill="white"/>
<rect width="248.064" height="3.70311" transform="matrix(0.798849 -0.601532 0.485994 0.873962 -90.3315 1133.87)" fill="white"/>
<rect width="248.064" height="3.70311" transform="matrix(0.798849 -0.601532 0.485994 0.873962 -84.2422 1144.82)" fill="white"/>
<rect width="248.064" height="3.70311" transform="matrix(0.798849 -0.601532 0.485994 0.873962 -78.1533 1155.77)" fill="white"/>
</g>
</g>
<mask id="mask1" mask-type="alpha" maskUnits="userSpaceOnUse" x="1311" y="53" width="367" height="444">
<ellipse cx="1494.36" cy="274.816" rx="119.806" ry="190.428" transform="rotate(-22.4132 1494.36 274.816)" fill="#4953BE"/>
</mask>
<g mask="url(#mask1)">
<rect width="248.064" height="3.70311" transform="matrix(0.798849 -0.601532 0.485994 0.873962 1404.83 346.986)" fill="#FF6D69"/>
<rect width="248.064" height="3.70311" transform="matrix(0.798849 -0.601532 0.485994 0.873962 1398.74 336.036)" fill="#FF6D69"/>
<rect width="248.064" height="3.70311" transform="matrix(0.798849 -0.601532 0.485994 0.873962 1392.65 325.086)" fill="#FF6D69"/>
<rect width="248.064" height="3.70311" transform="matrix(0.798849 -0.601532 0.485994 0.873962 1410.92 357.936)" fill="#FF6D69"/>
<rect width="248.064" height="3.70311" transform="matrix(0.798849 -0.601532 0.485994 0.873962 1417.01 368.886)" fill="#FF6D69"/>
<rect width="248.064" height="3.70311" transform="matrix(0.798849 -0.601532 0.485994 0.873962 1423.1 379.836)" fill="#FF6D69"/>
<rect width="248.064" height="3.70311" transform="matrix(0.798849 -0.601532 0.485994 0.873962 1429.19 390.786)" fill="#FF6D69"/>
<rect width="248.064" height="3.70311" transform="matrix(0.798849 -0.601532 0.485994 0.873962 1436.23 417.32)" fill="#FF6D69"/>
<rect width="248.064" height="3.70311" transform="matrix(0.798849 -0.601532 0.485994 0.873962 1430.14 406.37)" fill="#FF6D69"/>
<rect width="248.064" height="3.70311" transform="matrix(0.798849 -0.601532 0.485994 0.873962 1368.95 295.732)" fill="#FF6D69"/>
<rect width="248.064" height="3.70311" transform="matrix(0.798849 -0.601532 0.485994 0.873962 1362.87 284.782)" fill="#FF6D69"/>
<rect width="248.064" height="3.70311" transform="matrix(0.798849 -0.601532 0.485994 0.873962 1356.78 273.832)" fill="#FF6D69"/>
<rect width="248.064" height="3.70311" transform="matrix(0.798849 -0.601532 0.485994 0.873962 1375.04 306.682)" fill="#FF6D69"/>
<rect width="248.064" height="3.70311" transform="matrix(0.798849 -0.601532 0.485994 0.873962 1381.13 317.632)" fill="#FF6D69"/>
<rect width="248.064" height="3.70311" transform="matrix(0.798849 -0.601532 0.485994 0.873962 1387.22 328.582)" fill="#FF6D69"/>
<rect width="248.064" height="3.70311" transform="matrix(0.798849 -0.601532 0.485994 0.873962 1393.31 339.531)" fill="#FF6D69"/>
<rect width="248.064" height="3.70311" transform="matrix(0.798849 -0.601532 0.485994 0.873962 1406.44 377.015)" fill="#FF6D69"/>
<rect width="248.064" height="3.70311" transform="matrix(0.798849 -0.601532 0.485994 0.873962 1400.35 366.065)" fill="#FF6D69"/>
<rect width="248.064" height="3.70311" transform="matrix(0.798849 -0.601532 0.485994 0.873962 1394.26 355.115)" fill="#FF6D69"/>
<rect width="248.064" height="3.70311" transform="matrix(0.798849 -0.601532 0.485994 0.873962 1412.53 387.965)" fill="#FF6D69"/>
<rect width="248.064" height="3.70311" transform="matrix(0.798849 -0.601532 0.485994 0.873962 1418.62 398.915)" fill="#FF6D69"/>
<rect width="248.064" height="3.70311" transform="matrix(0.798849 -0.601532 0.485994 0.873962 1424.71 409.865)" fill="#FF6D69"/>
<rect width="248.064" height="3.70311" transform="matrix(0.798849 -0.601532 0.485994 0.873962 1430.8 420.815)" fill="#FF6D69"/>
<rect width="248.064" height="3.70311" transform="matrix(0.798849 -0.601532 0.485994 0.873962 1267.73 153.502)" fill="#FF6D69"/>
<rect width="248.064" height="3.70311" transform="matrix(0.798849 -0.601532 0.485994 0.873962 1261.64 142.552)" fill="#FF6D69"/>
<rect width="248.064" height="3.70311" transform="matrix(0.798849 -0.601532 0.485994 0.873962 1255.55 131.602)" fill="#FF6D69"/>
<rect width="248.064" height="3.70311" transform="matrix(0.798849 -0.601532 0.485994 0.873962 1273.82 164.452)" fill="#FF6D69"/>
<rect width="248.064" height="3.70311" transform="matrix(0.798849 -0.601532 0.485994 0.873962 1279.91 175.401)" fill="#FF6D69"/>
<rect width="248.064" height="3.70311" transform="matrix(0.798849 -0.601532 0.485994 0.873962 1285.99 186.351)" fill="#FF6D69"/>
<rect width="248.064" height="3.70311" transform="matrix(0.798849 -0.601532 0.485994 0.873962 1292.08 197.301)" fill="#FF6D69"/>
<rect width="248.064" height="3.70311" transform="matrix(0.798849 -0.601532 0.485994 0.873962 1305.22 234.785)" fill="#FF6D69"/>
<rect width="248.064" height="3.70311" transform="matrix(0.798849 -0.601532 0.485994 0.873962 1299.13 223.835)" fill="#FF6D69"/>
<rect width="248.064" height="3.70311" transform="matrix(0.798849 -0.601532 0.485994 0.873962 1293.04 212.885)" fill="#FF6D69"/>
<rect width="248.064" height="3.70311" transform="matrix(0.798849 -0.601532 0.485994 0.873962 1311.3 245.735)" fill="#FF6D69"/>
<rect width="248.064" height="3.70311" transform="matrix(0.798849 -0.601532 0.485994 0.873962 1317.39 256.685)" fill="#FF6D69"/>
<rect width="248.064" height="3.70311" transform="matrix(0.798849 -0.601532 0.485994 0.873962 1323.48 267.635)" fill="#FF6D69"/>
<rect width="248.064" height="3.70311" transform="matrix(0.798849 -0.601532 0.485994 0.873962 1329.57 278.584)" fill="#FF6D69"/>
</g>
</svg>
