<svg width="1440" height="1606" fill="none" xmlns="http://www.w3.org/2000/svg">
<mask id="mask0" mask-type="alpha" maskUnits="userSpaceOnUse" x="1361" y="363" width="266" height="365">
<ellipse cx="1494.36" cy="545.386" rx="119.806" ry="190.428" transform="rotate(-22.4132 1494.36 545.386)" fill="#4953BE"/>
</mask>
<g mask="url(#mask0)">
<rect width="248.064" height="3.70311" transform="matrix(0.798849 -0.601532 0.485994 0.873962 1404.83 617.556)" fill="#4953BE"/>
<rect width="248.064" height="3.70311" transform="matrix(0.798849 -0.601532 0.485994 0.873962 1398.74 606.606)" fill="#4953BE"/>
<rect width="248.064" height="3.70311" transform="matrix(0.798849 -0.601532 0.485994 0.873962 1392.65 595.656)" fill="#4953BE"/>
<rect width="248.064" height="3.70311" transform="matrix(0.798849 -0.601532 0.485994 0.873962 1410.92 628.506)" fill="#4953BE"/>
<rect width="248.064" height="3.70311" transform="matrix(0.798849 -0.601532 0.485994 0.873962 1417.01 639.456)" fill="#4953BE"/>
<rect width="248.064" height="3.70311" transform="matrix(0.798849 -0.601532 0.485994 0.873962 1423.1 650.406)" fill="#4953BE"/>
<rect width="248.064" height="3.70311" transform="matrix(0.798849 -0.601532 0.485994 0.873962 1429.19 661.355)" fill="#4953BE"/>
<rect width="248.064" height="3.70311" transform="matrix(0.798849 -0.601532 0.485994 0.873962 1436.23 687.889)" fill="#4953BE"/>
<rect width="248.064" height="3.70311" transform="matrix(0.798849 -0.601532 0.485994 0.873962 1430.14 676.939)" fill="#4953BE"/>
<rect width="248.064" height="3.70311" transform="matrix(0.798849 -0.601532 0.485994 0.873962 1368.95 566.302)" fill="#4953BE"/>
<rect width="248.064" height="3.70311" transform="matrix(0.798849 -0.601532 0.485994 0.873962 1362.87 555.352)" fill="#4953BE"/>
<rect width="248.064" height="3.70311" transform="matrix(0.798849 -0.601532 0.485994 0.873962 1356.78 544.402)" fill="#4953BE"/>
<rect width="248.064" height="3.70311" transform="matrix(0.798849 -0.601532 0.485994 0.873962 1375.04 577.252)" fill="#4953BE"/>
<rect width="248.064" height="3.70311" transform="matrix(0.798849 -0.601532 0.485994 0.873962 1381.13 588.201)" fill="#4953BE"/>
<rect width="248.064" height="3.70311" transform="matrix(0.798849 -0.601532 0.485994 0.873962 1387.22 599.151)" fill="#4953BE"/>
<rect width="248.064" height="3.70311" transform="matrix(0.798849 -0.601532 0.485994 0.873962 1393.31 610.101)" fill="#4953BE"/>
<rect width="248.064" height="3.70311" transform="matrix(0.798849 -0.601532 0.485994 0.873962 1406.44 647.585)" fill="#4953BE"/>
<rect width="248.064" height="3.70311" transform="matrix(0.798849 -0.601532 0.485994 0.873962 1400.35 636.635)" fill="#4953BE"/>
<rect width="248.064" height="3.70311" transform="matrix(0.798849 -0.601532 0.485994 0.873962 1394.26 625.685)" fill="#4953BE"/>
<rect width="248.064" height="3.70311" transform="matrix(0.798849 -0.601532 0.485994 0.873962 1412.53 658.535)" fill="#4953BE"/>
<rect width="248.064" height="3.70311" transform="matrix(0.798849 -0.601532 0.485994 0.873962 1418.62 669.485)" fill="#4953BE"/>
<rect width="248.064" height="3.70311" transform="matrix(0.798849 -0.601532 0.485994 0.873962 1424.71 680.435)" fill="#4953BE"/>
<rect width="248.064" height="3.70311" transform="matrix(0.798849 -0.601532 0.485994 0.873962 1430.8 691.385)" fill="#4953BE"/>
<rect width="248.064" height="3.70311" transform="matrix(0.798849 -0.601532 0.485994 0.873962 1267.73 424.072)" fill="#4953BE"/>
<rect width="248.064" height="3.70311" transform="matrix(0.798849 -0.601532 0.485994 0.873962 1261.64 413.122)" fill="#4953BE"/>
<rect width="248.064" height="3.70311" transform="matrix(0.798849 -0.601532 0.485994 0.873962 1255.55 402.172)" fill="#4953BE"/>
<rect width="248.064" height="3.70311" transform="matrix(0.798849 -0.601532 0.485994 0.873962 1273.82 435.021)" fill="#4953BE"/>
<rect width="248.064" height="3.70311" transform="matrix(0.798849 -0.601532 0.485994 0.873962 1279.91 445.971)" fill="#4953BE"/>
<rect width="248.064" height="3.70311" transform="matrix(0.798849 -0.601532 0.485994 0.873962 1285.99 456.921)" fill="#4953BE"/>
<rect width="248.064" height="3.70311" transform="matrix(0.798849 -0.601532 0.485994 0.873962 1292.08 467.871)" fill="#4953BE"/>
<rect width="248.064" height="3.70311" transform="matrix(0.798849 -0.601532 0.485994 0.873962 1305.22 505.355)" fill="#4953BE"/>
<rect width="248.064" height="3.70311" transform="matrix(0.798849 -0.601532 0.485994 0.873962 1299.13 494.405)" fill="#4953BE"/>
<rect width="248.064" height="3.70311" transform="matrix(0.798849 -0.601532 0.485994 0.873962 1293.04 483.455)" fill="#4953BE"/>
<rect width="248.064" height="3.70311" transform="matrix(0.798849 -0.601532 0.485994 0.873962 1311.3 516.305)" fill="#4953BE"/>
<rect width="248.064" height="3.70311" transform="matrix(0.798849 -0.601532 0.485994 0.873962 1317.39 527.254)" fill="#4953BE"/>
<rect width="248.064" height="3.70311" transform="matrix(0.798849 -0.601532 0.485994 0.873962 1323.48 538.205)" fill="#4953BE"/>
<rect width="248.064" height="3.70311" transform="matrix(0.798849 -0.601532 0.485994 0.873962 1329.57 549.154)" fill="#4953BE"/>
</g>
<ellipse cx="87.1567" cy="205.475" rx="112.895" ry="179.443" transform="rotate(28.1327 87.1567 205.475)" fill="#C7CAEB"/>
<ellipse cx="1412.26" cy="1386.8" rx="111.114" ry="176.613" transform="rotate(28.1327 1412.26 1386.8)" fill="#FF7878"/>
<g opacity="0.6">
<mask id="mask1" mask-type="alpha" maskUnits="userSpaceOnUse" x="-193" y="1117" width="439" height="441">
<ellipse cx="26.3624" cy="1337.39" rx="119.806" ry="190.428" transform="rotate(-44.5416 26.3624 1337.39)" fill="#4953BE"/>
</mask>
<g mask="url(#mask1)">
<rect width="248.064" height="3.70311" transform="matrix(0.51342 -0.858138 0.779404 0.626522 -29.3881 1437.96)" fill="#4751C0"/>
<rect width="248.064" height="3.70311" transform="matrix(0.51342 -0.858138 0.779404 0.626522 -39.1533 1430.11)" fill="#4751C0"/>
<rect width="248.064" height="3.70311" transform="matrix(0.51342 -0.858138 0.779404 0.626522 -48.9183 1422.27)" fill="#4751C0"/>
<rect width="248.064" height="3.70311" transform="matrix(0.51342 -0.858138 0.779404 0.626522 -19.6229 1445.81)" fill="#4751C0"/>
<rect width="248.064" height="3.70311" transform="matrix(0.51342 -0.858138 0.779404 0.626522 -9.85791 1453.66)" fill="#4751C0"/>
<rect width="248.064" height="3.70311" transform="matrix(0.51342 -0.858138 0.779404 0.626522 -0.0925903 1461.51)" fill="#4751C0"/>
<rect width="248.064" height="3.70311" transform="matrix(0.51342 -0.858138 0.779404 0.626522 9.67242 1469.36)" fill="#4751C0"/>
<rect width="248.064" height="3.70311" transform="matrix(0.51342 -0.858138 0.779404 0.626522 35.9566 1499.14)" fill="#4751C0"/>
<rect width="248.064" height="3.70311" transform="matrix(0.51342 -0.858138 0.779404 0.626522 26.1913 1491.29)" fill="#4751C0"/>
<rect width="248.064" height="3.70311" transform="matrix(0.51342 -0.858138 0.779404 0.626522 16.4263 1483.44)" fill="#4751C0"/>
<rect width="248.064" height="3.70311" transform="matrix(0.51342 -0.858138 0.779404 0.626522 45.7217 1506.99)" fill="#4751C0"/>
<rect width="248.064" height="3.70311" transform="matrix(0.51342 -0.858138 0.779404 0.626522 55.4868 1514.84)" fill="#4751C0"/>
<rect width="248.064" height="3.70311" transform="matrix(0.51342 -0.858138 0.779404 0.626522 65.2521 1522.69)" fill="#4751C0"/>
<rect width="248.064" height="3.70311" transform="matrix(0.51342 -0.858138 0.779404 0.626522 75.0172 1530.54)" fill="#4751C0"/>
<rect width="248.064" height="3.70311" transform="matrix(0.51342 -0.858138 0.779404 0.626522 128.08 1512.26)" fill="#4751C0"/>
<rect width="248.064" height="3.70311" transform="matrix(0.51342 -0.858138 0.779404 0.626522 118.315 1504.41)" fill="#4751C0"/>
<rect width="248.064" height="3.70311" transform="matrix(0.51342 -0.858138 0.779404 0.626522 108.549 1496.56)" fill="#4751C0"/>
<rect width="248.064" height="3.70311" transform="matrix(0.51342 -0.858138 0.779404 0.626522 137.845 1520.11)" fill="#4751C0"/>
<rect width="248.064" height="3.70311" transform="matrix(0.51342 -0.858138 0.779404 0.626522 147.61 1527.96)" fill="#4751C0"/>
<rect width="248.064" height="3.70311" transform="matrix(0.51342 -0.858138 0.779404 0.626522 157.375 1535.81)" fill="#4751C0"/>
<rect width="248.064" height="3.70311" transform="matrix(0.51342 -0.858138 0.779404 0.626522 167.14 1543.66)" fill="#4751C0"/>
<rect width="248.064" height="3.70311" transform="matrix(0.51342 -0.858138 0.779404 0.626522 193.424 1573.43)" fill="#4751C0"/>
<rect width="248.064" height="3.70311" transform="matrix(0.51342 -0.858138 0.779404 0.626522 183.659 1565.58)" fill="#4751C0"/>
<rect width="248.064" height="3.70311" transform="matrix(0.51342 -0.858138 0.779404 0.626522 173.894 1557.73)" fill="#4751C0"/>
<rect width="248.064" height="3.70311" transform="matrix(0.51342 -0.858138 0.779404 0.626522 203.19 1581.28)" fill="#4751C0"/>
<rect width="248.064" height="3.70311" transform="matrix(0.51342 -0.858138 0.779404 0.626522 212.955 1589.13)" fill="#4751C0"/>
<rect width="248.064" height="3.70311" transform="matrix(0.51342 -0.858138 0.779404 0.626522 222.72 1596.98)" fill="#4751C0"/>
<rect width="248.064" height="3.70311" transform="matrix(0.51342 -0.858138 0.779404 0.626522 232.485 1604.83)" fill="#4751C0"/>
<rect width="248.064" height="3.70311" transform="matrix(0.51342 -0.858138 0.779404 0.626522 -81.9299 1404)" fill="#4751C0"/>
<rect width="248.064" height="3.70311" transform="matrix(0.51342 -0.858138 0.779404 0.626522 -91.6951 1396.15)" fill="#4751C0"/>
<rect width="248.064" height="3.70311" transform="matrix(0.51342 -0.858138 0.779404 0.626522 -101.46 1388.3)" fill="#4751C0"/>
<rect width="248.064" height="3.70311" transform="matrix(0.51342 -0.858138 0.779404 0.626522 -72.1648 1411.85)" fill="#4751C0"/>
<rect width="248.064" height="3.70311" transform="matrix(0.51342 -0.858138 0.779404 0.626522 -62.3997 1419.7)" fill="#4751C0"/>
<rect width="248.064" height="3.70311" transform="matrix(0.51342 -0.858138 0.779404 0.626522 -52.6345 1427.55)" fill="#4751C0"/>
<rect width="248.064" height="3.70311" transform="matrix(0.51342 -0.858138 0.779404 0.626522 -42.8694 1435.4)" fill="#4751C0"/>
<rect width="248.064" height="3.70311" transform="matrix(0.51342 -0.858138 0.779404 0.626522 -16.5852 1465.18)" fill="#4751C0"/>
<rect width="248.064" height="3.70311" transform="matrix(0.51342 -0.858138 0.779404 0.626522 -26.3505 1457.33)" fill="#4751C0"/>
<rect width="248.064" height="3.70311" transform="matrix(0.51342 -0.858138 0.779404 0.626522 -36.1155 1449.48)" fill="#4751C0"/>
<rect width="248.064" height="3.70311" transform="matrix(0.51342 -0.858138 0.779404 0.626522 -6.82013 1473.03)" fill="#4751C0"/>
<rect width="248.064" height="3.70311" transform="matrix(0.51342 -0.858138 0.779404 0.626522 2.94489 1480.87)" fill="#4751C0"/>
<rect width="248.064" height="3.70311" transform="matrix(0.51342 -0.858138 0.779404 0.626522 12.7103 1488.72)" fill="#4751C0"/>
<rect width="248.064" height="3.70311" transform="matrix(0.51342 -0.858138 0.779404 0.626522 22.4753 1496.57)" fill="#4751C0"/>
<rect width="248.064" height="3.70311" transform="matrix(0.51342 -0.858138 0.779404 0.626522 -124.871 1402.95)" fill="#4751C0"/>
</g>
</g>
</svg>
