<svg width="368" height="444" viewBox="0 0 368 444" fill="none" xmlns="http://www.w3.org/2000/svg">
<mask id="mask0" mask-type="alpha" maskUnits="userSpaceOnUse" x="0" y="0" width="368" height="444">
<ellipse cx="183.766" cy="221.816" rx="119.806" ry="190.428" transform="rotate(-22.4132 183.766 221.816)" fill="#4953BE"/>
</mask>
<g mask="url(#mask0)">
<rect width="248.064" height="3.70311" transform="matrix(0.798849 -0.601532 0.485994 0.873962 94.2354 293.986)" fill="#FF6D69"/>
<rect width="248.064" height="3.70311" transform="matrix(0.798849 -0.601532 0.485994 0.873962 88.1463 283.036)" fill="#FF6D69"/>
<rect width="248.064" height="3.70311" transform="matrix(0.798849 -0.601532 0.485994 0.873962 82.0574 272.086)" fill="#FF6D69"/>
<rect width="248.064" height="3.70311" transform="matrix(0.798849 -0.601532 0.485994 0.873962 100.324 304.936)" fill="#FF6D69"/>
<rect width="248.064" height="3.70311" transform="matrix(0.798849 -0.601532 0.485994 0.873962 106.413 315.886)" fill="#FF6D69"/>
<rect width="248.064" height="3.70311" transform="matrix(0.798849 -0.601532 0.485994 0.873962 112.503 326.836)" fill="#FF6D69"/>
<rect width="248.064" height="3.70311" transform="matrix(0.798849 -0.601532 0.485994 0.873962 118.591 337.786)" fill="#FF6D69"/>
<rect width="248.064" height="3.70311" transform="matrix(0.798849 -0.601532 0.485994 0.873962 131.723 375.269)" fill="#FF6D69"/>
<rect width="248.064" height="3.70311" transform="matrix(0.798849 -0.601532 0.485994 0.873962 125.634 364.32)" fill="#FF6D69"/>
<rect width="248.064" height="3.70311" transform="matrix(0.798849 -0.601532 0.485994 0.873962 119.545 353.37)" fill="#FF6D69"/>
<rect width="248.064" height="3.70311" transform="matrix(0.798849 -0.601532 0.485994 0.873962 137.812 386.219)" fill="#FF6D69"/>
<rect width="248.064" height="3.70311" transform="matrix(0.798849 -0.601532 0.485994 0.873962 143.901 397.169)" fill="#FF6D69"/>
<rect width="248.064" height="3.70311" transform="matrix(0.798849 -0.601532 0.485994 0.873962 149.99 408.119)" fill="#FF6D69"/>
<rect width="248.064" height="3.70311" transform="matrix(0.798849 -0.601532 0.485994 0.873962 156.079 419.069)" fill="#FF6D69"/>
<rect width="248.064" height="3.70311" transform="matrix(0.798849 -0.601532 0.485994 0.873962 212.12 422.122)" fill="#FF6D69"/>
<rect width="248.064" height="3.70311" transform="matrix(0.798849 -0.601532 0.485994 0.873962 206.031 411.172)" fill="#FF6D69"/>
<rect width="248.064" height="3.70311" transform="matrix(0.798849 -0.601532 0.485994 0.873962 199.942 400.222)" fill="#FF6D69"/>
<rect width="248.064" height="3.70311" transform="matrix(0.798849 -0.601532 0.485994 0.873962 218.209 433.071)" fill="#FF6D69"/>
<rect width="248.064" height="3.70311" transform="matrix(0.798849 -0.601532 0.485994 0.873962 224.298 444.021)" fill="#FF6D69"/>
<rect width="248.064" height="3.70311" transform="matrix(0.798849 -0.601532 0.485994 0.873962 230.387 454.971)" fill="#FF6D69"/>
<rect width="248.064" height="3.70311" transform="matrix(0.798849 -0.601532 0.485994 0.873962 236.476 465.921)" fill="#FF6D69"/>
<rect width="248.064" height="3.70311" transform="matrix(0.798849 -0.601532 0.485994 0.873962 249.608 503.405)" fill="#FF6D69"/>
<rect width="248.064" height="3.70311" transform="matrix(0.798849 -0.601532 0.485994 0.873962 243.519 492.455)" fill="#FF6D69"/>
<rect width="248.064" height="3.70311" transform="matrix(0.798849 -0.601532 0.485994 0.873962 237.43 481.505)" fill="#FF6D69"/>
<rect width="248.064" height="3.70311" transform="matrix(0.798849 -0.601532 0.485994 0.873962 255.697 514.355)" fill="#FF6D69"/>
<rect width="248.064" height="3.70311" transform="matrix(0.798849 -0.601532 0.485994 0.873962 261.786 525.304)" fill="#FF6D69"/>
<rect width="248.064" height="3.70311" transform="matrix(0.798849 -0.601532 0.485994 0.873962 267.875 536.254)" fill="#FF6D69"/>
<rect width="248.064" height="3.70311" transform="matrix(0.798849 -0.601532 0.485994 0.873962 273.964 547.204)" fill="#FF6D69"/>
<rect width="248.064" height="3.70311" transform="matrix(0.798849 -0.601532 0.485994 0.873962 58.3575 242.732)" fill="#FF6D69"/>
<rect width="248.064" height="3.70311" transform="matrix(0.798849 -0.601532 0.485994 0.873962 52.2684 231.782)" fill="#FF6D69"/>
<rect width="248.064" height="3.70311" transform="matrix(0.798849 -0.601532 0.485994 0.873962 46.1795 220.832)" fill="#FF6D69"/>
<rect width="248.064" height="3.70311" transform="matrix(0.798849 -0.601532 0.485994 0.873962 64.4465 253.682)" fill="#FF6D69"/>
<rect width="248.064" height="3.70311" transform="matrix(0.798849 -0.601532 0.485994 0.873962 70.5355 264.632)" fill="#FF6D69"/>
<rect width="248.064" height="3.70311" transform="matrix(0.798849 -0.601532 0.485994 0.873962 76.6246 275.582)" fill="#FF6D69"/>
<rect width="248.064" height="3.70311" transform="matrix(0.798849 -0.601532 0.485994 0.873962 82.7136 286.531)" fill="#FF6D69"/>
<rect width="248.064" height="3.70311" transform="matrix(0.798849 -0.601532 0.485994 0.873962 95.8455 324.015)" fill="#FF6D69"/>
<rect width="248.064" height="3.70311" transform="matrix(0.798849 -0.601532 0.485994 0.873962 89.7563 313.065)" fill="#FF6D69"/>
<rect width="248.064" height="3.70311" transform="matrix(0.798849 -0.601532 0.485994 0.873962 83.6674 302.115)" fill="#FF6D69"/>
<rect width="248.064" height="3.70311" transform="matrix(0.798849 -0.601532 0.485994 0.873962 101.934 334.965)" fill="#FF6D69"/>
<rect width="248.064" height="3.70311" transform="matrix(0.798849 -0.601532 0.485994 0.873962 108.023 345.915)" fill="#FF6D69"/>
<rect width="248.064" height="3.70311" transform="matrix(0.798849 -0.601532 0.485994 0.873962 114.112 356.865)" fill="#FF6D69"/>
<rect width="248.064" height="3.70311" transform="matrix(0.798849 -0.601532 0.485994 0.873962 120.201 367.815)" fill="#FF6D69"/>
<rect width="248.064" height="3.70311" transform="matrix(0.798849 -0.601532 0.485994 0.873962 -42.8694 100.502)" fill="#FF6D69"/>
<rect width="248.064" height="3.70311" transform="matrix(0.798849 -0.601532 0.485994 0.873962 -48.9585 89.552)" fill="#FF6D69"/>
<rect width="248.064" height="3.70311" transform="matrix(0.798849 -0.601532 0.485994 0.873962 -55.0474 78.6021)" fill="#FF6D69"/>
<rect width="248.064" height="3.70311" transform="matrix(0.798849 -0.601532 0.485994 0.873962 -36.7804 111.452)" fill="#FF6D69"/>
<rect width="248.064" height="3.70311" transform="matrix(0.798849 -0.601532 0.485994 0.873962 -30.6915 122.401)" fill="#FF6D69"/>
<rect width="248.064" height="3.70311" transform="matrix(0.798849 -0.601532 0.485994 0.873962 -24.6023 133.351)" fill="#FF6D69"/>
<rect width="248.064" height="3.70311" transform="matrix(0.798849 -0.601532 0.485994 0.873962 -18.5134 144.301)" fill="#FF6D69"/>
<rect width="248.064" height="3.70311" transform="matrix(0.798849 -0.601532 0.485994 0.873962 -5.38147 181.785)" fill="#FF6D69"/>
<rect width="248.064" height="3.70311" transform="matrix(0.798849 -0.601532 0.485994 0.873962 -11.4706 170.835)" fill="#FF6D69"/>
<rect width="248.064" height="3.70311" transform="matrix(0.798849 -0.601532 0.485994 0.873962 -17.5596 159.885)" fill="#FF6D69"/>
<rect width="248.064" height="3.70311" transform="matrix(0.798849 -0.601532 0.485994 0.873962 0.707458 192.735)" fill="#FF6D69"/>
<rect width="248.064" height="3.70311" transform="matrix(0.798849 -0.601532 0.485994 0.873962 6.79639 203.685)" fill="#FF6D69"/>
<rect width="248.064" height="3.70311" transform="matrix(0.798849 -0.601532 0.485994 0.873962 12.8856 214.635)" fill="#FF6D69"/>
<rect width="248.064" height="3.70311" transform="matrix(0.798849 -0.601532 0.485994 0.873962 18.9745 225.584)" fill="#FF6D69"/>
</g>
</svg>
